<svg xmlns="http://www.w3.org/2000/svg" xmlns:xlink="http://www.w3.org/1999/xlink" width="60" zoomAndPan="magnify" viewBox="0 0 45 44.999999" height="60" preserveAspectRatio="xMidYMid meet" version="1.0"><defs><clipPath id="e52a34f1c5"><path d="M 29 2.671875 L 34 2.671875 L 34 7 L 29 7 Z M 29 2.671875 " clip-rule="nonzero"/></clipPath><clipPath id="a97c34c423"><path d="M 0 5 L 37 5 L 37 42.421875 L 0 42.421875 Z M 0 5 " clip-rule="nonzero"/></clipPath></defs><path fill="#000000" d="M 40.210938 8.515625 L 37.710938 8.515625 L 37.710938 6.011719 L 40.210938 6.011719 L 40.210938 8.515625 " fill-opacity="1" fill-rule="nonzero"/><path fill="#000000" d="M 44.988281 6.371094 L 42.925781 6.371094 L 42.925781 4.304688 L 44.988281 4.304688 L 44.988281 6.371094 " fill-opacity="1" fill-rule="nonzero"/><g clip-path="url(#e52a34f1c5)"><path fill="#000000" d="M 33.546875 6.84375 L 29.386719 6.84375 L 29.386719 2.671875 L 33.546875 2.671875 L 33.546875 6.84375 " fill-opacity="1" fill-rule="nonzero"/></g><path fill="#000000" d="M 41.042969 17.484375 L 36.878906 17.484375 L 36.878906 13.3125 L 41.042969 13.3125 L 41.042969 17.484375 " fill-opacity="1" fill-rule="nonzero"/><path fill="#000000" d="M 43.957031 13.3125 L 41.042969 13.3125 L 41.042969 10.390625 L 43.957031 10.390625 L 43.957031 13.3125 " fill-opacity="1" fill-rule="nonzero"/><g clip-path="url(#a97c34c423)"><path fill="#000000" d="M 31.65625 28.210938 C 31.65625 28.210938 24.347656 27.398438 21.617188 36.472656 C 23.023438 36.171875 26.179688 35.050781 29.195312 30.894531 C 29.195312 30.894531 26.652344 36.257812 21.394531 37.273438 C 31.957031 38.988281 31.65625 28.210938 31.65625 28.210938 Z M 23.871094 17.484375 L 28.03125 17.484375 L 28.03125 13.3125 L 23.871094 13.3125 Z M 9.296875 27.625 C 9.296875 27.625 7.058594 34.644531 15.398438 39.125 C 15.378906 37.683594 14.90625 34.359375 11.4375 30.578125 C 11.4375 30.578125 16.179688 34.132812 16.132812 39.5 C 19.898438 29.460938 9.296875 27.625 9.296875 27.625 Z M 36.464844 24.152344 C 36.464844 34.242188 28.304688 42.421875 18.238281 42.421875 C 18.019531 42.421875 17.804688 42.417969 17.589844 42.410156 C 20.949219 38.167969 22.136719 32.648438 20.972656 27.492188 C 23.644531 15.722656 10.535156 12.847656 10.535156 12.847656 C 10.535156 12.847656 6.765625 23.078125 18.800781 30.25 C 18.871094 28.113281 18.386719 23.167969 13.507812 17.351562 C 13.507812 17.351562 19.558594 22.183594 19.855469 29.28125 C 20.046875 33.945312 18.207031 38.605469 14.703125 42.078125 C 6.332031 40.429688 0.0117188 33.03125 0.0117188 24.152344 C 0.0117188 14.066406 8.171875 5.886719 18.238281 5.886719 C 21.84375 5.886719 25.203125 6.9375 28.03125 8.746094 L 28.03125 11.539062 L 31.417969 11.539062 C 31.433594 11.554688 31.449219 11.574219 31.46875 11.589844 L 31.46875 11.539062 L 32.195312 11.539062 L 32.195312 9.660156 L 35.628906 9.660156 L 35.628906 13.3125 L 31.46875 13.3125 L 31.46875 17.484375 L 35.210938 17.484375 C 36.019531 19.550781 36.464844 21.800781 36.464844 24.152344 " fill-opacity="1" fill-rule="nonzero"/></g></svg>