<svg xmlns="http://www.w3.org/2000/svg" xmlns:xlink="http://www.w3.org/1999/xlink" width="183" zoomAndPan="magnify" viewBox="0 0 137.25 49.499998" height="66" preserveAspectRatio="xMidYMid meet" version="1.0"><defs><g/><clipPath id="dd451d5738"><path d="M 44 5 L 46.140625 5 L 46.140625 9 L 44 9 Z M 44 5 " clip-rule="nonzero"/></clipPath><clipPath id="6f9dc14c06"><path d="M 30 4.308594 L 35 4.308594 L 35 9 L 30 9 Z M 30 4.308594 " clip-rule="nonzero"/></clipPath><clipPath id="a3ea203e24"><path d="M 0.316406 7 L 38 7 L 38 44.402344 L 0.316406 44.402344 Z M 0.316406 7 " clip-rule="nonzero"/></clipPath></defs><g fill="#000000" fill-opacity="1"><g transform="translate(48.611024, 26.783781)"><g><path d="M 8.273438 0.273438 C 11.445312 0.273438 14.753906 -2.265625 14.753906 -6.617188 C 14.753906 -11.015625 11.558594 -13.53125 8.226562 -13.53125 C 6.4375 -13.53125 4.871094 -12.761719 3.945312 -11.582031 L 3.945312 -16.773438 L 0.882812 -16.773438 L 0.882812 0 L 3.921875 0 L 3.921875 -1.722656 C 4.894531 -0.453125 6.460938 0.273438 8.273438 0.273438 Z M 7.75 -2.539062 C 5.484375 -2.539062 3.808594 -4.375 3.808594 -6.664062 C 3.808594 -8.929688 5.484375 -10.742188 7.75 -10.742188 C 9.996094 -10.742188 11.742188 -8.953125 11.742188 -6.664062 C 11.742188 -4.351562 9.996094 -2.539062 7.75 -2.539062 Z M 7.75 -2.539062 "/></g></g></g><g fill="#000000" fill-opacity="1"><g transform="translate(63.749356, 26.783781)"><g><path d="M 0.882812 0 L 3.964844 0 L 3.964844 -13.257812 L 0.882812 -13.257812 Z M 0.5 -16.5 C 0.5 -15.34375 1.179688 -14.597656 2.425781 -14.597656 C 3.625 -14.597656 4.351562 -15.34375 4.351562 -16.5 C 4.351562 -17.65625 3.625 -18.425781 2.425781 -18.425781 C 1.246094 -18.425781 0.5 -17.65625 0.5 -16.5 Z M 0.5 -16.5 "/></g></g></g><g fill="#000000" fill-opacity="1"><g transform="translate(68.599059, 26.783781)"><g><path d="M 7.320312 0.273438 C 11.128906 0.273438 14.1875 -2.808594 14.1875 -6.617188 C 14.1875 -10.492188 11.128906 -13.53125 7.320312 -13.53125 C 3.492188 -13.53125 0.453125 -10.492188 0.453125 -6.617188 C 0.453125 -2.808594 3.492188 0.273438 7.320312 0.273438 Z M 7.320312 -2.605469 C 5.121094 -2.605469 3.46875 -4.417969 3.46875 -6.617188 C 3.46875 -8.863281 5.121094 -10.652344 7.320312 -10.652344 C 9.496094 -10.652344 11.175781 -8.863281 11.175781 -6.617188 C 11.175781 -4.417969 9.496094 -2.605469 7.320312 -2.605469 Z M 7.320312 -2.605469 "/></g></g></g><g fill="#000000" fill-opacity="1"><g transform="translate(83.238821, 26.783781)"><g><path d="M 0.40625 -10.515625 L 2.675781 -10.515625 L 2.675781 -5.53125 C 2.675781 -1.316406 3.921875 0 8.023438 0 L 8.453125 0 L 8.453125 -2.878906 C 6.097656 -2.878906 5.757812 -3.242188 5.757812 -5.554688 L 5.757812 -10.515625 L 8.453125 -10.515625 L 8.453125 -13.257812 L 5.757812 -13.257812 L 5.757812 -17.382812 L 2.675781 -15.277344 L 2.675781 -13.257812 L 0.40625 -13.257812 Z M 0.40625 -10.515625 "/></g></g></g><g fill="#000000" fill-opacity="1"><g transform="translate(92.281028, 26.783781)"><g><path d="M 7.457031 0.273438 C 10.449219 0.273438 12.488281 -1.15625 13.644531 -3.308594 L 11.128906 -4.757812 C 10.492188 -3.332031 9.179688 -2.425781 7.457031 -2.425781 C 5.28125 -2.425781 3.808594 -3.671875 3.378906 -5.554688 L 14.164062 -5.554688 L 14.164062 -6.707031 C 14.164062 -10.628906 11.289062 -13.53125 7.34375 -13.53125 C 3.46875 -13.53125 0.453125 -10.472656 0.453125 -6.59375 C 0.453125 -2.765625 3.285156 0.273438 7.457031 0.273438 Z M 7.34375 -10.832031 C 9.246094 -10.832031 10.605469 -9.90625 11.0625 -8.113281 L 3.535156 -8.113281 C 4.078125 -9.746094 5.507812 -10.832031 7.34375 -10.832031 Z M 7.34375 -10.832031 "/></g></g></g><g fill="#000000" fill-opacity="1"><g transform="translate(106.920786, 26.783781)"><g><path d="M 7.34375 0.273438 C 10.425781 0.273438 12.667969 -1.449219 13.710938 -3.898438 L 10.96875 -5.078125 C 10.359375 -3.625 9.113281 -2.605469 7.390625 -2.605469 C 5.121094 -2.605469 3.445312 -4.417969 3.445312 -6.617188 C 3.445312 -8.863281 5.121094 -10.652344 7.367188 -10.652344 C 8.996094 -10.652344 10.3125 -9.722656 10.925781 -8.273438 L 13.667969 -9.429688 C 12.648438 -11.832031 10.3125 -13.53125 7.34375 -13.53125 C 3.46875 -13.53125 0.453125 -10.492188 0.453125 -6.617188 C 0.453125 -2.808594 3.46875 0.273438 7.34375 0.273438 Z M 7.34375 0.273438 "/></g></g></g><g fill="#000000" fill-opacity="1"><g transform="translate(120.903348, 26.783781)"><g><path d="M 0.882812 0 L 3.964844 0 L 3.964844 -7.277344 C 3.964844 -9.585938 5.328125 -10.878906 7.050781 -10.878906 C 9.042969 -10.878906 10.039062 -9.609375 10.039062 -7.523438 L 10.039062 0 L 13.167969 0 L 13.167969 -7.863281 C 13.167969 -11.46875 11.242188 -13.53125 7.910156 -13.53125 C 6.210938 -13.53125 4.851562 -12.828125 3.945312 -11.671875 L 3.945312 -16.773438 L 0.882812 -16.773438 Z M 0.882812 0 "/></g></g></g><g fill="#24e880" fill-opacity="1"><g transform="translate(49.627951, 38.444751)"><g><path d="M 0.382812 0 L 1.710938 0 L 1.710938 -5.71875 L 0.382812 -5.71875 Z M 0.214844 -7.117188 C 0.214844 -6.621094 0.507812 -6.296875 1.046875 -6.296875 C 1.566406 -6.296875 1.878906 -6.621094 1.878906 -7.117188 C 1.878906 -7.617188 1.566406 -7.949219 1.046875 -7.949219 C 0.539062 -7.949219 0.214844 -7.617188 0.214844 -7.117188 Z M 0.214844 -7.117188 "/></g></g></g><g fill="#24e880" fill-opacity="1"><g transform="translate(57.59947, 38.444751)"><g><path d="M 0.382812 0 L 1.703125 0 L 1.703125 -3.140625 C 1.703125 -4.144531 2.289062 -4.695312 3.042969 -4.695312 C 3.902344 -4.695312 4.332031 -4.144531 4.332031 -3.257812 L 4.332031 0 L 5.671875 0 L 5.671875 -3.394531 C 5.671875 -4.949219 4.839844 -5.839844 3.402344 -5.839844 C 2.660156 -5.839844 2.074219 -5.515625 1.691406 -5.015625 L 1.691406 -5.71875 L 0.382812 -5.71875 Z M 0.382812 0 "/></g></g></g><g fill="#24e880" fill-opacity="1"><g transform="translate(69.527224, 38.444751)"><g><path d="M 0.382812 0 L 1.703125 0 L 1.703125 -3.140625 C 1.703125 -4.144531 2.289062 -4.695312 3.042969 -4.695312 C 3.902344 -4.695312 4.332031 -4.144531 4.332031 -3.257812 L 4.332031 0 L 5.671875 0 L 5.671875 -3.394531 C 5.671875 -4.949219 4.839844 -5.839844 3.402344 -5.839844 C 2.660156 -5.839844 2.074219 -5.515625 1.691406 -5.015625 L 1.691406 -5.71875 L 0.382812 -5.71875 Z M 0.382812 0 "/></g></g></g><g fill="#24e880" fill-opacity="1"><g transform="translate(81.454977, 38.444751)"><g><path d="M 3.160156 0.117188 C 4.800781 0.117188 6.121094 -1.210938 6.121094 -2.855469 C 6.121094 -4.527344 4.800781 -5.839844 3.160156 -5.839844 C 1.507812 -5.839844 0.195312 -4.527344 0.195312 -2.855469 C 0.195312 -1.210938 1.507812 0.117188 3.160156 0.117188 Z M 3.160156 -1.125 C 2.210938 -1.125 1.496094 -1.90625 1.496094 -2.855469 C 1.496094 -3.824219 2.210938 -4.597656 3.160156 -4.597656 C 4.097656 -4.597656 4.820312 -3.824219 4.820312 -2.855469 C 4.820312 -1.90625 4.097656 -1.125 3.160156 -1.125 Z M 3.160156 -1.125 "/></g></g></g><g fill="#24e880" fill-opacity="1"><g transform="translate(93.646474, 38.444751)"><g><path d="M 2.269531 0 L 3.597656 0 L 5.75 -5.71875 L 4.390625 -5.71875 L 2.945312 -1.691406 L 1.46875 -5.71875 L 0.0898438 -5.71875 Z M 2.269531 0 "/></g></g></g><g fill="#24e880" fill-opacity="1"><g transform="translate(105.378859, 38.444751)"><g><path d="M 3.011719 0.117188 C 3.765625 0.117188 4.449219 -0.207031 4.871094 -0.742188 L 4.871094 0 L 6.191406 0 L 6.191406 -5.71875 L 4.871094 -5.71875 L 4.871094 -5.035156 C 4.449219 -5.535156 3.785156 -5.839844 3.03125 -5.839844 C 1.585938 -5.839844 0.195312 -4.753906 0.195312 -2.855469 C 0.195312 -0.976562 1.632812 0.117188 3.011719 0.117188 Z M 3.226562 -1.09375 C 2.25 -1.09375 1.496094 -1.878906 1.496094 -2.875 C 1.496094 -3.863281 2.25 -4.636719 3.226562 -4.636719 C 4.214844 -4.636719 4.9375 -3.851562 4.9375 -2.875 C 4.9375 -1.886719 4.214844 -1.09375 3.226562 -1.09375 Z M 3.226562 -1.09375 "/></g></g></g><g fill="#24e880" fill-opacity="1"><g transform="translate(117.814566, 38.444751)"><g><path d="M 0.175781 -4.539062 L 1.152344 -4.539062 L 1.152344 -2.386719 C 1.152344 -0.566406 1.691406 0 3.460938 0 L 3.648438 0 L 3.648438 -1.242188 C 2.628906 -1.242188 2.484375 -1.398438 2.484375 -2.394531 L 2.484375 -4.539062 L 3.648438 -4.539062 L 3.648438 -5.71875 L 2.484375 -5.71875 L 2.484375 -7.5 L 1.152344 -6.589844 L 1.152344 -5.71875 L 0.175781 -5.71875 Z M 0.175781 -4.539062 "/></g></g></g><g fill="#24e880" fill-opacity="1"><g transform="translate(127.593255, 38.444751)"><g><path d="M 3.21875 0.117188 C 4.507812 0.117188 5.386719 -0.5 5.886719 -1.425781 L 4.800781 -2.054688 C 4.527344 -1.4375 3.960938 -1.046875 3.21875 -1.046875 C 2.277344 -1.046875 1.644531 -1.585938 1.457031 -2.394531 L 6.113281 -2.394531 L 6.113281 -2.894531 C 6.113281 -4.585938 4.871094 -5.839844 3.167969 -5.839844 C 1.496094 -5.839844 0.195312 -4.519531 0.195312 -2.84375 C 0.195312 -1.191406 1.417969 0.117188 3.21875 0.117188 Z M 3.167969 -4.675781 C 3.988281 -4.675781 4.578125 -4.273438 4.773438 -3.5 L 1.527344 -3.5 C 1.761719 -4.203125 2.375 -4.675781 3.167969 -4.675781 Z M 3.167969 -4.675781 "/></g></g></g><path fill="#24e880" d="M 41.242188 10.199219 L 38.6875 10.199219 L 38.6875 7.675781 L 41.242188 7.675781 L 41.242188 10.199219 " fill-opacity="1" fill-rule="nonzero"/><g clip-path="url(#dd451d5738)"><path fill="#24e880" d="M 46.128906 8.039062 L 44.019531 8.039062 L 44.019531 5.953125 L 46.128906 5.953125 L 46.128906 8.039062 " fill-opacity="1" fill-rule="nonzero"/></g><g clip-path="url(#6f9dc14c06)"><path fill="#24e880" d="M 34.425781 8.515625 L 30.167969 8.515625 L 30.167969 4.304688 L 34.425781 4.304688 L 34.425781 8.515625 " fill-opacity="1" fill-rule="nonzero"/></g><path fill="#24e880" d="M 42.09375 19.25 L 37.835938 19.25 L 37.835938 15.039062 L 42.09375 15.039062 L 42.09375 19.25 " fill-opacity="1" fill-rule="nonzero"/><path fill="#24e880" d="M 45.074219 15.039062 L 42.09375 15.039062 L 42.09375 12.09375 L 45.074219 12.09375 L 45.074219 15.039062 " fill-opacity="1" fill-rule="nonzero"/><g clip-path="url(#a3ea203e24)"><path fill="#24e880" d="M 32.492188 30.066406 C 32.492188 30.066406 25.015625 29.246094 22.21875 38.402344 C 23.660156 38.097656 26.890625 36.96875 29.972656 32.777344 C 29.972656 32.777344 27.375 38.183594 21.992188 39.207031 C 32.800781 40.9375 32.492188 30.066406 32.492188 30.066406 Z M 24.523438 19.25 L 28.785156 19.25 L 28.785156 15.039062 L 24.523438 15.039062 Z M 9.617188 29.476562 C 9.617188 29.476562 7.328125 36.558594 15.855469 41.078125 C 15.839844 39.621094 15.355469 36.269531 11.808594 32.453125 C 11.808594 32.453125 16.65625 36.039062 16.609375 41.457031 C 20.460938 31.328125 9.617188 29.476562 9.617188 29.476562 Z M 37.40625 25.976562 C 37.40625 36.152344 29.058594 44.402344 18.761719 44.402344 C 18.542969 44.402344 18.320312 44.398438 18.101562 44.390625 C 21.539062 40.113281 22.753906 34.542969 21.558594 29.34375 C 24.292969 17.46875 10.882812 14.570312 10.882812 14.570312 C 10.882812 14.570312 7.027344 24.890625 19.339844 32.121094 C 19.410156 29.96875 18.914062 24.980469 13.921875 19.113281 C 13.921875 19.113281 20.113281 23.988281 20.417969 31.148438 C 20.613281 35.851562 18.730469 40.554688 15.148438 44.054688 C 6.582031 42.390625 0.117188 34.929688 0.117188 25.976562 C 0.117188 15.800781 8.464844 7.550781 18.761719 7.550781 C 22.453125 7.550781 25.890625 8.609375 28.785156 10.433594 L 28.785156 13.25 L 32.246094 13.25 C 32.265625 13.269531 32.28125 13.285156 32.296875 13.300781 L 32.296875 13.25 L 33.042969 13.25 L 33.042969 11.355469 L 36.554688 11.355469 L 36.554688 15.039062 L 32.296875 15.039062 L 32.296875 19.25 L 36.125 19.25 C 36.953125 21.332031 37.40625 23.601562 37.40625 25.976562 " fill-opacity="1" fill-rule="nonzero"/></g></svg>